<svg width="1920" height="1080" viewBox="0 0 1920 1080" xmlns="http://www.w3.org/2000/svg"><path d="M1537,598.9999999999999C1545.5161491998847,687.9213493076352,1327.6990175417889,852.7928166968649,1256.2265664209785,933.4634950854331C1184.7541153001682,1014.1341734740014,1195.1197210119683,1072.490763347843,1108.1652932751385,1083.0240703314093C1021.2108655383088,1093.5573773149756,799.8420078761535,1063.81258412768,734.5000000000001,996.6633369868302C669.1579921238467,929.5140898459803,750.9196836703184,780.0868390684667,716.113246018218,680.1285874863095C681.3068083661176,580.1703359041522,521.5969150904345,481.8479068474823,525.6613740873981,396.9138274938867C529.7258330843617,311.97974814029106,650.9434876303744,224.51376100228518,740.4999999999998,170.52411136473586C830.0565123696251,116.53446172718654,985.5621697682053,34.74071502277655,1063.0004483051503,72.97592966859077C1140.4387268420953,111.21114431440498,1126.1297459391947,312.26472085105297,1205.1296712216697,399.9353992396212C1284.1295965041447,487.6060776281894,1528.4838508001153,510.07865069236453,1537,598.9999999999999C1545.5161491998847,687.9213493076352,1327.6990175417889,852.7928166968649,1256.2265664209785,933.4634950854331" fill="#ffffff"/></svg>